# xmcd CD database file
#
# Track frame offsets:
#	150
#	1238
#	20703
#	36277
#	55183
#	75520
#	94901
#	111413
#	134581
#	153477
#	172900
#	193194
#	212191
#
# Disc length: 3104 seconds
#
# Revision: 9
# Processed by: cddbd v1.5.2PL0 Copyright (c) Steve Scherf et al.
# Submitted via: CD2WAV32(JP) R3.22
#
DISCID=b00c1e0d
DTITLE=U - U☆TOPIA - GWAVE SuperFeature's vol.4
DYEAR=2006
DGENRE=Game
TTITLE0=to U☆Topia -Introduction-
TTITLE1=Special Day
TTITLE2=Little My Star
TTITLE3=ether trip
TTITLE4=アナタトアタシノスナドケイハ
TTITLE5=なの☆なの
TTITLE6=レッゴー ラヴリィ 変身タイム!
TTITLE7=天空merry-go-round
TTITLE8=我愛イ尓
TTITLE9=Mighty Love
TTITLE10=ride on fate
TTITLE11=Help!heaven!
TTITLE12=あなたがSなら
EXTD=
EXTT0=曲:ユウ
EXTT1=詞曲:ユウ
EXTT2=「魔界天使ジブリール episode 2」OP/Frontwing 詞曲:ユウ
EXTT3=詞曲:ユウ
EXTT4=詞曲:ユウ
EXTT5=詞曲:ユウ
EXTT6=「魔界天使ジブリール」OP/Frontwing 詞曲:ユウ
EXTT7=曲:ユウ 詞:U/K
EXTT8=詞曲:ユウ
EXTT9=詞曲:ユウ
EXTT10=詞曲:ユウ
EXTT11=「めがちゅ!」OP/Frontwing 詞曲:ユウ
EXTT12=詞曲:ユウ
PLAYORDER=
